<svg id="レイヤー_1" data-name="レイヤー 1" xmlns="http://www.w3.org/2000/svg" viewBox="0 0 187.21 39.21"><defs><style>.cls-1{fill:#3e3a39;}</style></defs><path class="cls-1" d="M75.37,156.16,72,159.41q-2.68-2.91-10.35-9.52a46,46,0,0,1-14.17,9.61l-2.21-3.57a42.45,42.45,0,0,0,11.27-7.29,31.63,31.63,0,0,0,8.1-10.6l-15.33,0v-4H69.17l1.24,1.19a28.89,28.89,0,0,1-2.48,6.32,37.93,37.93,0,0,1-3.5,5.1Q71,152,75.37,156.16Z" transform="translate(-45.24 -120.29)"/><path class="cls-1" d="M103,145.87H91.9v.46A11.65,11.65,0,0,1,88.52,155,17.73,17.73,0,0,1,79,159.47l-1.37-3.75a14.43,14.43,0,0,0,7.12-3.32,7.7,7.7,0,0,0,2.5-5.85v-.68H74.72V142H103ZM101.11,138H76.55v-3.87h24.56Z" transform="translate(-45.24 -120.29)"/><path class="cls-1" d="M112.23,148.65l-3.82,1.21a51.41,51.41,0,0,0-4-9.94l3.45-1.34c.58,1.11,1.15,2.24,1.7,3.4S111,145.37,112.23,148.65Zm15.29-10.23q-.84,9.53-5.43,14.7t-13.39,6.32l-1-3.16q7.68-1.09,11.48-5.44T123.64,138Zm-8.16,8.75-3.77,1.3a52.9,52.9,0,0,0-4.07-10l3.4-1.33c1,1.72,1.63,3,2,3.89S118.13,143.93,119.36,147.17Z" transform="translate(-45.24 -120.29)"/><path class="cls-1" d="M154.61,136.94v0a44.14,44.14,0,0,1-.58,4.63,23.6,23.6,0,0,1-2.71,7.69,16.75,16.75,0,0,1-6.84,6.52A32.81,32.81,0,0,1,132,159.23l-1.21-4a29.06,29.06,0,0,0,10.63-2.9,13.94,13.94,0,0,0,6-5.57,22.54,22.54,0,0,0,2.27-8.63l-19.13,0v-3.91l22.45,0A3.86,3.86,0,0,0,154.61,136.94Zm6.3-3.15a3.07,3.07,0,0,1-1,2.32,3.7,3.7,0,0,1-4.88,0,3.27,3.27,0,0,1,0-4.65,3.73,3.73,0,0,1,4.88,0A3.09,3.09,0,0,1,160.91,133.79Zm-2-1.37a2,2,0,1,0,.55,1.37A1.87,1.87,0,0,0,158.87,132.42Z" transform="translate(-45.24 -120.29)"/><path class="cls-1" d="M232.45,159.5h-7.18V136q0-3.79.27-8.39h-.18a47.52,47.52,0,0,1-1,5.19l-7.56,26.66h-5.94l-7.69-26.38c-.21-.71-.55-2.54-1-5.47h-.21q.3,5.79.3,10.17V159.5h-6.55V120.29h10.64l6.59,23.25a37.61,37.61,0,0,1,1.15,5.6h.13q.62-3.25,1.29-5.66l6.59-23.19h10.37Z" transform="translate(-45.24 -120.29)"/><path class="cls-1" d="M174.48,120.29H45.24v7.19h116.2v32h13q8.91,0,14.27-5.46t5.35-14.63Q194.1,120.29,174.48,120.29Zm7.82,28.6a10.72,10.72,0,0,1-8.46,3.45h-4.11V127.48h4.06c3.66,0,6.51,1.08,8.54,3.22s3,5.08,3,8.82Q185.37,145.45,182.3,148.89Z" transform="translate(-45.24 -120.29)"/></svg>